<svg version="1.1" id="Layer_1" xmlns="http://www.w3.org/2000/svg" xmlns:xlink="http://www.w3.org/1999/xlink" x="0px" y="0px"
	 width="100%" viewBox="0 0 251 87" enable-background="new 0 0 251 87" xml:space="preserve">
<path fill="#ffffff" opacity="0" stroke="none" 
	d="
M170.000000,88.000000 
	C114.666672,88.000000 59.833244,87.959351 5.000264,88.097214 
	C1.575223,88.105827 0.876206,87.427582 0.899577,83.999336 
	C1.081353,57.333912 1.039738,30.666538 0.934823,4.000287 
	C0.924984,1.499635 1.500687,0.934819 4.000028,0.937149 
	C85.666611,1.013272 167.333298,1.013267 248.999878,0.937166 
	C251.498993,0.934837 252.074844,1.499346 252.065170,4.000191 
	C251.960739,30.999784 251.960739,58.000088 252.065140,84.999680 
	C252.074799,87.500191 251.500763,88.075356 248.999817,88.065247 
	C222.833557,87.959511 196.666687,88.000000 170.000000,88.000000 
z"/>
<path fill="#BF1700" opacity="1.000000" stroke="none" 
	d="
M50.378105,54.390465 
	C54.803844,49.870468 56.983597,44.911163 56.950821,39.206287 
	C56.930809,35.723629 59.185501,33.785740 61.424503,32.032413 
	C63.989559,30.023769 67.285187,31.704332 67.834175,35.349083 
	C68.159393,37.508232 68.605026,38.615082 70.872536,39.580986 
	C75.277519,41.457390 75.970856,45.135956 73.406586,49.232929 
	C72.544243,50.610703 71.553749,51.997913 71.115501,53.522705 
	C70.773773,54.711681 69.335068,55.706448 70.565681,57.806812 
	C73.768471,54.167904 77.864548,51.988811 79.344185,46.708862 
	C81.464859,39.141445 87.403358,34.709949 93.140213,35.001808 
	C98.093575,35.253807 99.887093,38.733009 97.632744,43.013859 
	C95.479912,47.101952 92.269234,49.903732 88.337669,52.016010 
	C86.606728,52.945988 85.898918,54.096115 86.844307,55.925526 
	C87.843925,57.859909 89.186356,58.542797 91.283623,57.294662 
	C95.576790,54.739689 100.150093,52.075512 101.704544,47.219391 
	C103.118561,42.801998 106.185623,40.093964 109.057053,37.026703 
	C111.009468,34.941135 117.931602,33.889282 119.003105,35.834644 
	C120.698517,38.912724 124.832207,41.297733 121.939438,46.189068 
	C120.209679,49.113888 119.898064,52.934978 120.238518,57.739861 
	C124.981819,51.879482 130.909897,48.293056 131.176071,40.508396 
	C131.305786,36.714348 135.128601,37.672203 137.120682,38.201447 
	C139.666168,38.877731 141.457214,38.591579 143.495041,37.143051 
	C145.657028,35.606255 148.205460,34.907997 150.040085,37.495876 
	C151.925385,40.155247 153.891174,39.602524 155.777908,37.994720 
	C157.808472,36.264355 160.071945,34.913273 162.299713,36.635441 
	C164.774368,38.548439 166.823593,41.165176 165.893845,44.802944 
	C164.897934,48.699654 163.866516,52.587292 162.716919,56.990948 
	C169.444321,53.703415 170.781982,47.366589 173.994171,42.408142 
	C176.739838,38.169838 179.906372,34.615604 185.677643,34.969582 
	C190.450745,35.262337 192.484558,38.419815 190.376938,42.777233 
	C188.386612,46.892139 185.371643,50.129314 181.080429,51.802929 
	C179.040359,52.598572 177.667389,53.449211 178.988327,55.597931 
	C180.140320,57.471817 181.799957,58.715828 184.277557,57.297710 
	C190.252090,53.878033 194.976364,48.836342 196.833847,42.583385 
	C197.522476,40.265266 197.321228,37.205315 198.698334,34.584095 
	C199.817444,32.453979 201.338470,31.058167 203.659668,31.462353 
	C206.001114,31.870064 207.406158,33.456852 207.016098,36.120583 
	C206.701035,38.272343 207.920227,38.621967 209.808823,39.193287 
	C214.098846,40.491077 215.722778,46.334732 212.951172,49.946781 
	C211.243851,52.171787 210.154465,54.596283 208.959702,57.690964 
	C213.319885,56.309101 215.767136,53.270096 217.751816,50.288567 
	C220.109314,46.746952 223.558502,43.762695 223.411484,38.609436 
	C223.323410,35.522076 226.683411,33.799725 229.615692,33.110729 
	C232.473450,32.439240 235.827835,35.449516 234.574493,37.427258 
	C231.185150,42.775585 235.189682,46.942646 236.384171,51.427620 
	C237.464584,55.484306 236.469498,59.232594 231.708603,62.371006 
	C228.222961,64.668755 224.880051,65.109039 221.583145,61.525204 
	C220.473999,60.319530 219.794250,58.852970 218.747910,57.880306 
	C216.398880,59.628258 214.205902,61.567768 211.728745,63.023769 
	C208.782944,64.755211 205.519623,64.804443 203.166351,62.078850 
	C200.833511,59.376923 199.476166,56.336666 202.830582,53.048126 
	C204.030685,51.871593 204.341782,49.830765 205.242355,48.291927 
	C205.892227,47.181465 206.474121,45.956539 205.204376,45.285904 
	C203.823151,44.556385 202.848648,45.561897 202.080093,46.886311 
	C199.404175,51.497631 196.650665,56.065983 193.829025,60.589790 
	C192.507309,62.708836 191.079742,64.719833 188.867722,61.161270 
	C188.025009,59.805573 186.990448,61.088371 186.157684,61.664204 
	C182.097168,64.471901 178.260681,64.621513 174.449631,61.063698 
	C172.409164,59.158794 170.125305,57.864758 167.661316,60.796989 
	C166.350998,62.356335 164.366989,62.841232 162.415741,63.301300 
	C157.735809,64.404747 154.901199,62.544014 155.092072,57.809238 
	C155.260269,53.636284 156.188660,49.493969 156.975876,43.974239 
	C152.568481,47.811230 150.166885,51.389103 149.027374,55.857830 
	C148.661972,57.290718 148.474152,58.799580 147.896439,60.140728 
	C146.934265,62.374378 145.086609,63.497108 142.663452,62.883533 
	C139.647827,62.119930 140.966995,59.530602 141.224380,57.926121 
	C141.944031,53.440228 143.154480,49.033073 144.374680,43.706738 
	C138.250565,47.527840 136.035736,52.724789 135.064423,58.536232 
	C134.608871,61.261761 133.397171,62.648354 130.720749,63.004932 
	C128.167068,63.345158 126.573021,62.609852 126.846695,59.243626 
	C122.507919,62.669746 118.510307,65.283493 113.903511,60.590275 
	C112.649590,59.312836 111.227364,60.716003 110.416328,61.427761 
	C107.348175,64.120308 104.318504,63.906673 101.825798,61.129395 
	C99.553970,58.598217 97.837479,59.387859 95.463509,60.759518 
	C87.298271,65.477280 84.789940,64.972549 78.767471,57.969120 
	C77.272049,59.362263 75.868202,60.895115 74.241791,62.136318 
	C71.267876,64.405884 67.665337,65.312027 64.705902,62.903526 
	C61.465008,60.265957 60.276951,56.658829 63.454792,52.733124 
	C64.459366,51.492142 64.972488,49.796219 65.484291,48.234367 
	C65.803680,47.259689 67.459778,46.007355 65.570892,45.147804 
	C64.116158,44.485813 63.253254,45.545616 62.518150,46.856728 
	C60.064251,51.233410 57.410175,55.497849 54.955631,59.874191 
	C53.070240,63.235764 50.998539,63.817898 48.202301,60.025982 
	C48.036579,57.575932 48.982510,56.150665 50.378105,54.390465 
z"/>
<path fill="#BF1800" opacity="1.000000" stroke="none" 
	d="
M22.409306,26.238857 
	C21.783268,18.352217 22.726543,17.352293 28.976410,15.924265 
	C45.014351,12.259768 53.601135,22.467009 53.999744,36.677517 
	C54.164562,42.553211 52.729591,48.095848 50.735748,53.791550 
	C51.017036,54.124538 51.048000,54.037361 51.062363,53.993393 
	C49.599068,55.528542 49.415825,57.732433 48.180412,59.809975 
	C47.976265,60.092941 48.062366,60.074020 48.105350,60.064835 
	C44.152153,60.918770 43.167805,65.209892 40.005554,67.143616 
	C35.006115,70.200790 30.298473,73.434685 23.936306,73.110992 
	C20.157366,72.918732 17.920336,70.281380 14.917495,68.907433 
	C13.492290,68.255341 14.536427,67.405464 14.933287,66.530014 
	C19.245033,57.018517 22.283775,47.145771 22.924397,36.660423 
	C23.065876,34.344734 24.596342,32.298149 24.102272,29.468544 
	C24.882746,27.469175 24.413897,26.585041 22.409306,26.238857 
z"/>
<path fill="#FF0000" opacity="1.000000" stroke="none" 
	d="
M22.229742,26.364761 
	C23.566936,26.260534 24.804205,26.634430 24.253471,28.774750 
	C24.132872,27.787344 23.604357,26.933485 22.229742,26.364761 
z"/>
<path fill="#ffffff" opacity="1.000000" stroke="none" 
	d="
M111.671585,53.652946 
	C110.118721,54.147884 108.903015,55.716114 107.705551,54.650574 
	C105.831520,52.982990 108.832939,52.239510 108.738503,51.224930 
	C108.468742,48.326843 110.561531,46.379276 111.146500,43.871906 
	C111.324959,43.106949 111.874489,42.221256 112.832275,42.606773 
	C113.646240,42.934402 115.323936,43.086037 114.851128,44.310574 
	C113.697594,47.298096 115.168297,51.109192 111.671585,53.652946 
z"/>
<path fill="#ffffff" opacity="1.000000" stroke="none" 
	d="
M226.967743,55.164604 
	C226.346085,52.838062 224.349121,53.262959 223.014847,52.575813 
	C224.256165,50.643608 225.443649,48.795189 226.632477,46.944702 
	C228.725845,49.291206 228.565216,52.423904 229.576691,55.137943 
	C229.942841,56.120358 229.767197,56.712749 228.694885,56.864826 
	C227.698853,57.006092 227.164413,56.497520 226.967743,55.164604 
z"/>
<path fill="#ffffff" opacity="1.000000" stroke="none" 
	d="
M48.314011,59.961357 
	C47.378994,57.438992 48.920479,55.559162 50.696709,53.788086 
	C51.045807,56.230133 50.451473,58.278492 48.314011,59.961357 
z"/>
<path fill="#ffffff" opacity="1.000000" stroke="none" 
	d="
M89.626228,42.475460 
	C90.016228,42.148540 90.358414,42.123295 90.700592,42.098049 
	C90.713219,42.963406 90.174881,42.918304 89.626228,42.475460 
z"/>
<path fill="#ffffff" opacity="1.000000" stroke="none" 
	d="
M88.658463,43.224892 
	C89.485336,43.257088 89.542702,43.612019 89.195587,43.980400 
	C89.060539,44.123726 88.731522,44.084290 88.490860,44.128101 
	C88.451752,43.872478 88.412643,43.616859 88.658463,43.224892 
z"/>
<path fill="#ffffff" opacity="1.000000" stroke="none" 
	d="
M28.805563,24.878300 
	C32.407501,20.462482 39.367218,20.968367 42.307011,25.651991 
	C47.947464,34.638237 44.629860,43.309864 41.458599,51.892216 
	C39.295883,57.745148 35.364162,62.439529 30.139801,65.926895 
	C28.604328,66.951859 26.481651,67.803131 25.108900,66.573097 
	C24.363211,65.904938 24.463318,63.173336 25.223730,62.136581 
	C28.611780,57.517269 28.000309,51.900291 29.530054,46.844990 
	C31.207821,41.300529 32.949688,35.773209 33.891048,30.026411 
	C34.697300,25.104385 33.494228,23.717209 28.805563,24.878300 
z"/>
</svg>